<svg xmlns="http://www.w3.org/2000/svg" viewBox="0 0 205 180.869">
  <defs>
    <style>
      .cls-1 {
        fill: #f5f749;
      }
    </style>
  </defs>
  <g id="sun-umbrella" transform="translate(0 -30.135)">
    <g id="Group_88" data-name="Group 88" transform="translate(14.86 44.996)">
      <g id="Group_87" data-name="Group 87">
        <path id="Path_11401" data-name="Path 11401" class="cls-1" d="M56.542,67.25A19.428,19.428,0,1,0,75.97,86.678,19.45,19.45,0,0,0,56.542,67.25Zm0,32.829a13.4,13.4,0,1,1,13.4-13.4A13.417,13.417,0,0,1,56.542,100.079Z" transform="translate(-37.114 -67.25)"/>
      </g>
    </g>
    <g id="Group_90" data-name="Group 90" transform="translate(31.275 30.135)">
      <g id="Group_89" data-name="Group 89">
        <path id="Path_11402" data-name="Path 11402" class="cls-1" d="M81.125,30.135a3.013,3.013,0,0,0-3.013,3.013v6.061a3.013,3.013,0,1,0,6.026,0V33.148A3.013,3.013,0,0,0,81.125,30.135Z" transform="translate(-78.112 -30.135)"/>
      </g>
    </g>
    <g id="Group_92" data-name="Group 92" transform="translate(49.104 39.295)">
      <g id="Group_91" data-name="Group 91">
        <path id="Path_11403" data-name="Path 11403" class="cls-1" d="M132.071,53.9a3.014,3.014,0,0,0-4.262,0l-4.286,4.286a3.013,3.013,0,0,0,4.262,4.261l4.286-4.286A3.013,3.013,0,0,0,132.071,53.9Z" transform="translate(-122.641 -53.013)"/>
      </g>
    </g>
    <g id="Group_94" data-name="Group 94" transform="translate(56.49 61.41)">
      <g id="Group_93" data-name="Group 93" transform="translate(0 0)">
        <path id="Path_11404" data-name="Path 11404" class="cls-1" d="M150.161,108.247H144.1a3.013,3.013,0,0,0,0,6.026h6.061a3.013,3.013,0,0,0,0-6.026Z" transform="translate(-141.087 -108.247)"/>
      </g>
    </g>
    <g id="Group_96" data-name="Group 96" transform="translate(49.104 79.24)">
      <g id="Group_95" data-name="Group 95">
        <path id="Path_11405" data-name="Path 11405" class="cls-1" d="M132.071,157.945l-4.286-4.285a3.013,3.013,0,0,0-4.262,4.261l4.286,4.286a3.013,3.013,0,0,0,4.262-4.261Z" transform="translate(-122.641 -152.777)"/>
      </g>
    </g>
    <g id="Group_98" data-name="Group 98" transform="translate(31.275 86.625)">
      <g id="Group_97" data-name="Group 97">
        <path id="Path_11406" data-name="Path 11406" class="cls-1" d="M81.125,171.222a3.013,3.013,0,0,0-3.013,3.013V180.3a3.013,3.013,0,1,0,6.026,0v-6.061A3.013,3.013,0,0,0,81.125,171.222Z" transform="translate(-78.112 -171.222)"/>
      </g>
    </g>
    <g id="Group_100" data-name="Group 100" transform="translate(9.16 79.24)">
      <g id="Group_99" data-name="Group 99">
        <path id="Path_11407" data-name="Path 11407" class="cls-1" d="M32.308,153.659a3.013,3.013,0,0,0-4.261,0l-4.286,4.285a3.013,3.013,0,0,0,4.261,4.261l4.286-4.286A3.013,3.013,0,0,0,32.308,153.659Z" transform="translate(-22.878 -152.777)"/>
      </g>
    </g>
    <g id="Group_102" data-name="Group 102" transform="translate(0 61.41)">
      <g id="Group_101" data-name="Group 101" transform="translate(0 0)">
        <path id="Path_11408" data-name="Path 11408" class="cls-1" d="M9.074,108.247H3.013a3.013,3.013,0,1,0,0,6.026H9.074a3.013,3.013,0,0,0,0-6.026Z" transform="translate(0 -108.247)"/>
      </g>
    </g>
    <g id="Group_104" data-name="Group 104" transform="translate(9.16 39.295)">
      <g id="Group_103" data-name="Group 103">
        <path id="Path_11409" data-name="Path 11409" class="cls-1" d="M32.308,58.181,28.022,53.9a3.013,3.013,0,0,0-4.261,4.261l4.286,4.286a3.013,3.013,0,0,0,4.262-4.261Z" transform="translate(-22.878 -53.013)"/>
      </g>
    </g>
    <g id="Group_106" data-name="Group 106" transform="translate(0.709 50.869)">
      <g id="Group_105" data-name="Group 105">
        <path id="Path_11410" data-name="Path 11410" class="cls-1" d="M204.6,232.171a28.144,28.144,0,0,0-17.353-4.85c-5.55-7.645-16.019-14.2-30.443-19.029a150.635,150.635,0,0,0-29.569-6.447l21.587-54.161a38.121,38.121,0,0,1,8.423,8.307,3.086,3.086,0,0,0,3.26,1.318A41.223,41.223,0,0,1,200,173.142a3.013,3.013,0,0,0,5.42-1.345,103.7,103.7,0,0,0-3.493-40.426,3.013,3.013,0,1,0-5.77,1.735,99,99,0,0,1,3.8,30.838,47.936,47.936,0,0,0-35.7-13.16c.051-.156.1-.308.148-.463a112.577,112.577,0,0,0,4.974-22.13,86.707,86.707,0,0,0,0-20.723,65.262,65.262,0,0,0-2.583-11.754c-.009-.028-.018-.057-.027-.085a58.357,58.357,0,0,1,24.763,25.739,3.013,3.013,0,1,0,5.386-2.7,64.662,64.662,0,0,0-34.879-31.886c-21.552-8.589-43.984-5.764-64.866,8.17a104.1,104.1,0,0,0-25.1,23.7,3.013,3.013,0,0,0,3.01,4.7A41.235,41.235,0,0,1,114.549,138.9a3.126,3.126,0,0,0,3.473,1.393,38.148,38.148,0,0,1,11.721-.218l-24.073,60.4c-.607-.005-1.213-.016-1.822-.016A182.519,182.519,0,0,0,64.4,204.572a3.013,3.013,0,0,0,1.306,5.883,179,179,0,0,1,38.14-3.968c6.285,0,12.573.3,18.827.92l.067,0a147.987,147.987,0,0,1,32.151,6.595c11.486,3.847,20.353,8.916,25.557,14.533a28.457,28.457,0,0,0-7.535,3.631,22.089,22.089,0,0,1-24.921,0,28.084,28.084,0,0,0-31.687,0,22.089,22.089,0,0,1-24.921,0,28.084,28.084,0,0,0-31.687,0,22.089,22.089,0,0,1-24.921,0,28.437,28.437,0,0,0-7.534-3.631c5.2-5.61,14.049-10.673,25.512-14.518a3.013,3.013,0,0,0-1.916-5.714c-14.4,4.829-24.852,11.377-30.395,19.013a28.148,28.148,0,0,0-17.353,4.85,3.013,3.013,0,0,0,3.383,4.988A22.121,22.121,0,0,1,21.3,233.436a2.959,2.959,0,0,0,.554.069,22.229,22.229,0,0,1,9.546,3.653,28.085,28.085,0,0,0,31.686,0,22.089,22.089,0,0,1,24.922,0,28.085,28.085,0,0,0,31.686,0,22.089,22.089,0,0,1,24.922,0,28.085,28.085,0,0,0,31.687,0,22.231,22.231,0,0,1,9.523-3.65,2.98,2.98,0,0,0,.589-.074,22.12,22.12,0,0,1,14.809,3.723,3.013,3.013,0,1,0,3.381-4.987Zm-82.493-98.407c.032-.068.065-.135.1-.2a108.34,108.34,0,0,1,9.9-16.832,3.013,3.013,0,1,0-4.882-3.533,112.26,112.26,0,0,0-8.236,13.345c-.883,1.67-1.781,3.361-2.538,5.093l-.04.084a47.943,47.943,0,0,0-34.976-15.009,101.5,101.5,0,0,1,19.233-16.842,70.568,70.568,0,0,1,26.166-10.992,57.829,57.829,0,0,1,25.725,1.093l-.106.058a66.544,66.544,0,0,0-12.817,9.234c-1.52,1.388-3,2.815-4.423,4.3a3.013,3.013,0,1,0,4.361,4.159,68.591,68.591,0,0,1,12.984-10.751,47.641,47.641,0,0,1,6.876-3.634,46.619,46.619,0,0,1,2.213,6.3c3.633,13.088,2.651,27.213-.533,40.283q-1.028,4.216-2.374,8.347l-.028.086a46.43,46.43,0,0,0-14.835-10.429l-.234-.1A47.153,47.153,0,0,0,122.111,133.763Zm-1.1,67.433q-2.1-.181-4.218-.315c-1.564-.107-3.13-.186-4.7-.25l23.631-59.29a42.306,42.306,0,0,1,4.217,1.455c.224.091,3.676,1.672,3.67,1.688Z" transform="translate(-1.772 -81.919)"/>
      </g>
    </g>
  </g>
</svg>
